{"title":"Haani (2013) Punjabi Movie MC DVDSCR RIP GOPI SAHI PDR","uid":8956242,"size":635071031,"categoryP":"video","categoryS":"movies","magnet":"?xt=urn:btih:9a05d99dfc8f7cbc2fea4258c9f4af5a408aa322&amp;dn=Haani+%282013%29+Punjabi+Movie+MC+DVDSCR+RIP+GOPI+SAHI+PDR&amp;tr=udp%3A%2F%2Ftracker.openbittorrent.com%3A80&amp;tr=udp%3A%2F%2Fopen.demonii.com%3A1337&amp;tr=udp%3A%2F%2Ftracker.coppersurfer.tk%3A6969&amp;tr=udp%3A%2F%2Fexodus.desync.com%3A6969","seeders":0,"leechers":1,"uploader":"jatt13","files":11,"time":1380001288,"description":"[img]http://imageshack.us/a/img802/2678/k9wp.png[/img]\n\n[img]http://imageshack.us/a/img163/6786/xqrr.jpg[/img]\n\nVideo\nID                             : 1\nFormat                         : AVC\nFormat/Info                    : Advanced Video Codec\nFormat profile                 : &lt;a class=&quot;__cf_email__&quot; href=&quot;/cdn-cgi/l/email-protection&quot; data-cfemail=&quot;6b260a02052b275e455a&quot;&gt;[email&amp;#160;protected]&lt;/a&gt;&lt;script cf-hash='f9e31' type=&quot;text/javascript&quot;&gt;\n/* &lt;![CDATA[ */!function(){try{var t=&quot;currentScript&quot;in document?document.currentScript:function(){for(var t=document.getElementsByTagName(&quot;script&quot;),e=t.length;e--;)if(t[e].getAttribute(&quot;cf-hash&quot;))return t[e]}();if(t&amp;&amp;t.previousSibling){var e,r,n,i,c=t.previousSibling,a=c.getAttribute(&quot;data-cfemail&quot;);if(a){for(e=&quot;&quot;,r=parseInt(a.substr(0,2),16),n=2;a.length-n;n+=2)i=parseInt(a.substr(n,2),16)^r,e+=String.fromCharCode(i);e=document.createTextNode(e),c.parentNode.replaceChild(e,c)}}}catch(u){}}();/* ]]&gt; */&lt;/script&gt;\nFormat settings, CABAC         : Yes\nFormat settings, ReFrames      : 1 frame\nCodec ID                       : V_MPEG4/ISO/AVC\nDuration                       : 3h 1mn\nBit rate                       : 392 Kbps\nWidth                          : 640 pixels\nHeight                         : 480 pixels\nDisplay aspect ratio           : 4:3\nFrame rate mode                : Constant\nFrame rate                     : 25.000 fps\nColor space                    : YUV\nChroma subsampling             : 4:2:0\nBit depth                      : 8 bits\nScan type                      : Progressive\nBits/(Pixel*Frame)             : 0.051\nStream size                    : 510 MiB (84%)\nDefault                        : Yes\nForced                         : No\n\nAudio\nID                             : 2\nFormat                         : MPEG Audio\nFormat version                 : Version 1\nFormat profile                 : Layer 2\nCodec ID                       : A_MPEG/L2\nCodec ID/Hint                  : MP2\nDuration                       : 3h 1mn\nBit rate mode                  : Constant\nBit rate                       : 64.0 Kbps\nChannel(s)                     : 2 channels\nSampling rate                  : 44.1 KHz\nCompression mode               : Lossy\nStream size                    : 83.2 MiB (14%)\nDefault                        : Yes\nForced                         : No\n\n[img]http://imageshack.us/a/img547/3630/kgst.jpg[/img]\n[img]http://imageshack.us/a/img547/5728/7ypq.jpg[/img]\n[img]http://imageshack.us/a/img208/9421/64ct.jpg[/img]\n[img]http://imageshack.us/a/img843/9835/fhw1.jpg[/img]\n[img]http://imageshack.us/a/img4/2184/km8l.jpg[/img]\n[img]http://imageshack.us/a/img837/1691/5v2u.jpg[/img]\n[img]http://imageshack.us/a/img822/2251/jkzm.jpg[/img]","torrent":{"xt":"urn:btih:9a05d99dfc8f7cbc2fea4258c9f4af5a408aa322","amp;dn":"Haani+%282013%29+Punjabi+Movie+MC+DVDSCR+RIP+GOPI+SAHI+PDR","amp;tr":["udp%3A%2F%2Ftracker.openbittorrent.com%3A80","udp%3A%2F%2Fopen.demonii.com%3A1337","udp%3A%2F%2Ftracker.coppersurfer.tk%3A6969","udp%3A%2F%2Fexodus.desync.com%3A6969"],"infoHash":"9a05d99dfc8f7cbc2fea4258c9f4af5a408aa322","infoHashBuffer":{"type":"Buffer","data":[154,5,217,157,252,143,124,188,47,234,66,88,201,244,175,90,64,138,163,34]},"announce":[],"urlList":[]}}